<?xml version="1.0" encoding="UTF-8"?>
<svg width="3800px" height="1900px" viewBox="0 0 3800 1900" version="1.1" xmlns="http://www.w3.org/2000/svg" xmlns:xlink="http://www.w3.org/1999/xlink">
    <!-- Generator: Sketch 43.2 (39069) - http://www.bohemiancoding.com/sketch -->
    <title>blockchain_backgrounds_big_7</title>
    <desc>Created with Sketch.</desc>
    <defs>
        <polygon id="path-1" points="0.06 1899.94 3800 1899.94 3800 0 0.06 0"></polygon>
    </defs>
    <g id="Page-1" stroke="none" stroke-width="1" fill="none" fill-rule="evenodd">
        <g id="blockchain_backgrounds_big_7">
            <g id="Group-7">
                <mask id="mask-2" fill="white">
                    <use xlink:href="#path-1"></use>
                </mask>
                <g id="Clip-2"></g>
                <polygon id="Fill-1" fill="#FFFFFF" mask="url(#mask-2)" points="0 1900 3800 1900 3800 0 0 0"></polygon>
                <path d="M3275.61,585.341 C3275.26,590.836 3273.28,596.092 3270,600.435 L3534.16,861.663 C3534.9,861.291 3535.66,860.961 3536.46,860.674 C3542,858.696 3547.85,859.348 3552.63,861.979 L3745.52,582.258 C3741.86,579.184 3738.93,575.127 3737.21,570.298 C3736.48,568.243 3736,566.161 3735.77,564.087 L3275.61,585.341 Z M3442.28,1718.85 C3442.45,1717.97 3442.69,1717.11 3442.99,1716.28 L3217.36,1551.64 L2971.73,1781.52 C2972.06,1782.13 2972.36,1782.78 2972.62,1783.45 L3442.28,1718.85 Z M3462.81,1705.59 C3464.12,1705.91 3465.39,1706.37 3466.59,1706.98 L3578.77,1597.99 C3577.26,1595.97 3576.03,1593.71 3575.14,1591.21 C3571.06,1579.78 3575.61,1567.37 3585.42,1561.1 L3470.82,1353.6 C3469.54,1354.25 3468.21,1354.83 3466.82,1355.32 C3464.9,1356.01 3462.96,1356.51 3461.02,1356.84 L3462.81,1705.59 Z M3453.22,1706.13 C3453.72,1705.94 3454.23,1705.79 3454.75,1705.66 L3452.96,1357.28 C3445.74,1356.81 3438.85,1354.1 3433.28,1349.58 L3223.35,1546.03 L3447.48,1709.57 C3449.09,1708.1 3451.02,1706.91 3453.22,1706.13 Z M3027.7,1441.49 C3024.45,1440.31 3021.48,1438.42 3019.02,1435.94 L2674.96,1711.97 C2675.8,1713.38 2676.52,1714.89 2677.1,1716.49 C2678.18,1719.52 2678.65,1722.62 2678.58,1725.66 L2941.52,1782.3 C2943.37,1778.39 2946.72,1775.18 2951.13,1773.61 C2952.51,1773.11 2953.92,1772.81 2955.32,1772.68 L3027.7,1441.49 Z M3054.87,1433.08 C3052.18,1436.85 3048.34,1439.87 3043.64,1441.54 C3041,1442.49 3038.29,1442.93 3035.63,1442.92 L2963.29,1773.91 C2964.35,1774.34 2965.36,1774.89 2966.3,1775.52 L3210.71,1546.79 L3054.87,1433.08 Z M3059,1415.9 C3059.5,1419.22 3059.27,1422.55 3058.4,1425.68 L3216.71,1541.19 L3427.63,1343.79 C3425.48,1340.98 3423.71,1337.8 3422.46,1334.29 C3422.25,1333.69 3422.06,1333.1 3421.87,1332.5 L3059,1415.9 Z M2449.23,1496.48 C2445.22,1499.61 2440.65,1502.16 2435.6,1503.96 C2415.93,1510.98 2394.74,1504.63 2381.96,1489.63 L1957.6,1810.84 C1957.95,1811.4 1958.26,1811.98 1958.55,1812.58 L2627.46,1724.28 C2627.64,1718.65 2629.68,1713.26 2633.19,1708.94 L2449.23,1496.48 Z M2467.35,1466.14 C2465.77,1475.4 2461.53,1484.06 2455.17,1490.99 L2639.23,1703.56 C2640.83,1702.54 2642.56,1701.68 2644.43,1701.01 C2648.49,1699.56 2652.66,1699.2 2656.65,1699.78 L2714.35,1501.84 C2710.64,1499.94 2707.62,1496.68 2706.11,1492.45 C2705.62,1491.08 2705.32,1489.68 2705.19,1488.3 L2467.35,1466.14 Z M1648.31,1850.3 L1648.67,1851.25 C1648.92,1851.96 1649.15,1852.68 1649.35,1853.39 L1919.93,1817.68 C1921.28,1810.8 1926.12,1804.79 1933.19,1802.26 C1939.78,1799.92 1946.76,1801.13 1952.05,1804.91 L2377.24,1483.06 L2377.08,1482.77 L1648.31,1850.3 Z M3800,692.885 L3800,728.503 L3767.44,588.489 C3762.24,589.253 3757.05,588.503 3752.41,586.5 L3558.79,867.279 C3560,868.862 3560.99,870.659 3561.69,872.635 C3562.88,875.961 3563.12,879.388 3562.56,882.634 L3800,958.377 L3800,966.848 L3559.57,890.155 C3557.3,893.606 3553.92,896.374 3549.73,897.868 C3548.33,898.372 3546.9,898.699 3545.48,898.876 L3462.99,1288.8 C3469.09,1290.22 3474.73,1293.27 3479.26,1297.64 L3800,1020.92 L3800,1031.6 L3484.39,1303.89 C3485.78,1306.06 3486.95,1308.42 3487.85,1310.96 C3492.85,1324.97 3488.3,1340.06 3477.58,1349.13 L3592.86,1557.86 C3598.28,1556.46 3603.82,1556.93 3608.73,1558.9 L3800,1116.27 L3800,1136.58 L3616.42,1561.41 L3800,1383.05 L3800,1394.29 L3639.18,1550.54 L3800,1443.08 L3800,1452.76 L3622.25,1571.54 C3622.63,1572.34 3622.98,1573.17 3623.29,1574.03 C3625.61,1580.54 3625.13,1587.38 3622.48,1593.21 L3800,1722.03 L3800,1731.99 L3618.02,1599.94 C3615.3,1602.9 3611.85,1605.25 3607.8,1606.7 C3599.71,1609.58 3591.13,1608.14 3584.58,1603.59 L3472.72,1712.27 C3473.6,1713.51 3474.32,1714.88 3474.86,1716.39 C3475.02,1716.84 3475.16,1717.28 3475.28,1717.73 L3800,1748.62 L3800,1756.75 L3475.42,1725.87 C3474.88,1728.21 3473.85,1730.41 3472.41,1732.32 L3563.84,1829.23 L3800,1762.41 L3800,1770.79 L3570.08,1835.84 L3630.62,1900 L3619.53,1900 L3561.33,1838.32 L3343.35,1900 L3313.74,1900 L3555.09,1831.71 L3466.12,1737.41 C3465.63,1737.64 3465.12,1737.85 3464.6,1738.03 C3455.79,1741.18 3446.09,1736.59 3442.95,1727.77 C3442.85,1727.49 3442.76,1727.21 3442.68,1726.93 L2973.66,1791.44 C2972.96,1797.67 2968.82,1803.27 2962.52,1805.52 C2960.42,1806.27 2958.27,1806.58 2956.17,1806.49 L2935.74,1900 L2927.5,1900 L2948.42,1804.27 C2945.03,1802.33 2942.28,1799.22 2940.87,1795.26 C2940.28,1793.59 2939.96,1791.9 2939.89,1790.22 L2677.12,1733.6 C2676.05,1736.6 2674.44,1739.39 2672.35,1741.81 L2809.33,1900 L2798.63,1900 L2666.16,1747.01 C2664.74,1747.86 2663.22,1748.58 2661.61,1749.16 C2648.31,1753.9 2633.69,1746.97 2628.94,1733.67 C2628.78,1733.22 2628.63,1732.75 2628.49,1732.29 L1960.62,1820.45 C1961.14,1829.33 1955.8,1837.84 1947.01,1840.98 C1936.32,1844.8 1924.56,1839.22 1920.74,1828.53 C1920.42,1827.63 1920.17,1826.72 1919.98,1825.81 L1650.44,1861.39 C1650.46,1873.88 1642.72,1885.59 1630.29,1890.03 C1614.51,1895.66 1597.15,1887.43 1591.52,1871.65 C1585.89,1855.87 1594.12,1838.51 1609.9,1832.88 C1622.74,1828.3 1636.62,1832.89 1644.38,1843.25 L2373.57,1475.51 L2373.14,1474.36 C2364.07,1448.94 2377.33,1420.97 2402.75,1411.9 C2428.17,1402.83 2456.13,1416.09 2465.2,1441.51 C2467.16,1446.99 2468.07,1452.59 2468.05,1458.1 L2706.4,1480.3 C2708.17,1476.03 2711.67,1472.48 2716.37,1470.8 C2725.19,1467.66 2734.88,1472.25 2738.02,1481.06 C2741.17,1489.88 2736.57,1499.57 2727.76,1502.71 C2725.93,1503.37 2724.05,1503.69 2722.21,1503.7 L2664.35,1702.17 C2666.3,1703.14 2668.13,1704.34 2669.78,1705.78 L3014.41,1429.29 C3014.11,1428.64 3013.84,1427.98 3013.6,1427.3 C3010.38,1418.29 3013,1408.62 3019.48,1402.41 L2862.63,1179.67 C2862.34,1179.79 2862.04,1179.91 2861.73,1180.02 C2852.92,1183.16 2843.23,1178.57 2840.09,1169.75 C2836.94,1160.94 2841.54,1151.25 2850.35,1148.11 C2859.16,1144.96 2868.85,1149.55 2872,1158.37 C2872.64,1160.16 2872.96,1161.99 2872.99,1163.79 L3423.36,1308.7 C3427.06,1300.25 3434.11,1293.28 3443.49,1289.93 C3447.28,1288.58 3451.14,1287.93 3454.95,1287.9 L3537.39,898.171 C3531.6,896.422 3526.69,892.04 3524.5,885.908 C3522.08,879.138 3523.59,871.924 3527.83,866.74 L3264.25,606.085 C3262.13,607.63 3259.77,608.901 3257.18,609.825 C3242.7,614.992 3226.77,607.442 3221.6,592.967 C3216.44,578.483 3223.99,562.558 3238.47,557.395 C3252.95,552.228 3268.87,559.775 3274.04,574.255 C3274.4,575.269 3274.69,576.29 3274.94,577.315 L3736.03,556.012 C3737.75,546.525 3744.34,538.196 3754.07,534.727 C3768.55,529.557 3784.48,537.109 3789.64,551.587 C3794.51,565.243 3788.08,580.183 3775.18,586.174 L3800,692.885 Z M3027.84,1397.25 C3038.93,1393.29 3051.01,1398.16 3056.43,1408.21 L3420.49,1324.54 C3420.33,1321.8 3420.51,1319.08 3420.99,1316.44 L2871.17,1171.68 C2870.6,1172.81 2869.91,1173.87 2869.1,1174.86 L3026.17,1397.92 C3026.71,1397.68 3027.27,1397.45 3027.84,1397.25 L3027.84,1397.25 Z" id="Fill-3" fill="#F7F7F9" mask="url(#mask-2)"></path>
                <path d="M927.115,1747.43 C926.785,1741.94 928.1,1736.48 930.831,1731.76 L636.557,1504.99 C635.873,1505.45 635.153,1505.87 634.395,1506.25 C629.137,1508.9 623.255,1508.97 618.191,1506.95 L461.143,1808.26 C465.161,1810.86 468.559,1814.52 470.862,1819.11 C471.842,1821.06 472.57,1823.06 473.062,1825.09 L927.115,1747.43 Z M150.621,276.073 C149.554,276.609 148.473,277.056 147.371,277.418 L221.92,625.217 C233.535,623.685 245.336,629.012 251.718,639.343 L481.15,542.615 L155.286,272.999 C153.885,274.179 152.329,275.215 150.621,276.073 Z M220.062,1053.88 L219.41,1054.2 L230.696,1104.42 L447.647,834.25 L231.101,1021.25 C236.953,1033.3 232.062,1047.84 220.062,1053.88 Z M333.268,1436.51 C330.634,1447.29 323.546,1456.89 312.975,1462.4 L438.632,1804.77 C443.697,1803.37 448.937,1803.48 453.789,1804.9 L611.427,1502.44 C610.03,1501.02 608.827,1499.36 607.883,1497.49 C606.299,1494.33 605.636,1490.96 605.798,1487.67 L333.268,1436.51 Z M294.224,1387.2 C297.145,1387.18 300.048,1387.48 302.876,1388.08 L468.899,820.661 L232.955,1114.48 L294.224,1387.2 Z M267.493,1397.78 C270.166,1395.31 273.223,1393.17 276.636,1391.45 C279.729,1389.9 282.928,1388.79 286.163,1388.08 L226.497,1122.53 L116.891,1259.02 L267.493,1397.78 Z M631.585,1060 C629.94,1058.02 628.49,1055.82 627.281,1053.41 C620.595,1040.12 623.255,1024.59 632.78,1014.26 L492.72,821.286 C487.512,823.341 481.958,823.563 476.842,822.208 L310.549,1390.55 C315.505,1392.72 320.04,1395.91 323.812,1399.99 L631.585,1060 Z M654.675,1072.34 C648.449,1071.68 642.479,1069.35 637.445,1065.57 L328.744,1406.59 C329.241,1407.42 329.713,1408.28 330.154,1409.16 C333.28,1415.37 334.627,1422.02 334.383,1428.51 L607.832,1479.84 C609.666,1476.13 612.676,1472.97 616.652,1470.97 C617.984,1470.3 619.357,1469.8 620.746,1469.45 L654.675,1072.34 Z M622.369,643.012 C622.307,643.903 622.175,644.782 621.975,645.644 L866.134,781.297 L1081.64,522.976 C1081.23,522.404 1080.86,521.801 1080.52,521.163 L622.369,643.012 Z M588.612,640.116 C588.858,637.731 589.61,635.422 590.813,633.348 L488.154,548.409 L255.023,646.701 C255.307,647.653 255.539,648.61 255.726,649.573 L588.612,640.116 Z M592.97,653.284 C591.94,652.161 591.051,650.885 590.335,649.458 C590.121,649.033 589.928,648.607 589.755,648.174 L256.186,657.652 C255.927,661.002 255.113,664.28 253.794,667.351 L462.575,782.623 C464.909,779.354 468.048,776.589 471.887,774.66 C479.561,770.799 488.251,771.174 495.311,774.893 L592.97,653.284 Z M603.624,658.689 C602.28,658.538 600.965,658.232 599.7,657.777 L501.766,779.735 C503.514,781.547 505.016,783.646 506.207,786.009 C511.656,796.853 508.667,809.732 499.707,817.163 L638.938,1009 C640.127,1008.2 641.38,1007.46 642.697,1006.8 C644.517,1005.88 646.385,1005.15 648.266,1004.57 L603.624,658.689 Z M613.075,656.978 C612.594,657.224 612.106,657.438 611.613,657.63 L656.211,1003.15 C663.437,1002.73 670.612,1004.58 676.696,1008.37 L860.876,787.603 L618.346,652.857 C616.925,654.518 615.156,655.936 613.075,656.978 Z M1067.9,867.301 C1071.26,868.076 1074.45,869.586 1077.19,871.747 L1384.71,555.513 C1383.7,554.216 1382.8,552.805 1382.04,551.282 C1380.59,548.412 1379.74,545.392 1379.44,542.374 L1111.53,518.476 C1110.17,522.592 1107.24,526.187 1103.06,528.292 C1101.74,528.951 1100.39,529.422 1099.02,529.72 L1067.9,867.301 Z M1041.97,878.99 C1044.18,874.917 1047.61,871.451 1052.07,869.208 C1054.58,867.946 1057.21,867.172 1059.85,866.86 L1090.95,529.487 C1089.85,529.186 1088.78,528.771 1087.76,528.255 L873.328,785.295 L1041.97,878.99 Z M1039.98,896.549 C1039.07,893.309 1038.89,889.979 1039.37,886.77 L868.069,791.596 L683.012,1013.43 C685.491,1015.94 687.634,1018.88 689.308,1022.22 C689.591,1022.78 689.857,1023.35 690.109,1023.92 L1039.98,896.549 Z M1111.5,306.566 C1103.91,304.936 1097.01,300.424 1092.52,293.6 L496.534,544.877 L596.423,627.521 C596.88,627.232 597.36,626.966 597.856,626.716 C606.215,622.509 616.397,625.877 620.601,634.236 C620.734,634.505 620.859,634.773 620.98,635.044 L1078.51,513.363 C1078.43,507.093 1081.86,501.031 1087.83,498.022 C1089.82,497.02 1091.92,496.449 1094.01,496.272 L1111.5,306.566 Z M1131.48,304.002 C1127.63,305.937 1123.57,306.973 1119.53,307.195 L1101.98,497.527 C1105.59,499.034 1108.69,501.785 1110.58,505.545 C1111.37,507.123 1111.9,508.766 1112.17,510.42 L1379.91,534.307 C1380.6,531.2 1381.85,528.233 1383.63,525.576 L1135.38,301.658 C1134.16,302.523 1132.86,303.307 1131.48,304.002 Z M1635.22,741.615 C1638.81,738.017 1643.04,734.924 1647.83,732.514 C1666.49,723.133 1688.3,726.827 1702.83,740.148 L2084.47,369.2 C2084.06,368.692 2083.68,368.154 2083.32,367.597 L1430.34,537.454 C1430.85,543.061 1429.48,548.668 1426.53,553.385 L1635.22,741.615 Z M1620.96,773.954 C1621.4,764.567 1624.54,755.456 1629.99,747.793 L1421.21,559.468 C1419.74,560.678 1418.13,561.743 1416.36,562.635 C1412.51,564.57 1408.41,565.442 1404.38,565.359 L1371.45,768.89 C1375.36,770.312 1378.76,773.178 1380.78,777.193 C1381.44,778.492 1381.9,779.844 1382.2,781.203 L1620.96,773.954 Z M2386.57,292.02 L2386.09,291.118 C2385.76,290.445 2385.45,289.763 2385.16,289.08 L2121.02,357.787 C2120.52,364.776 2116.46,371.337 2109.75,374.713 C2103.51,377.852 2096.42,377.509 2090.71,374.412 L1708.31,746.088 L1708.51,746.351 L2386.57,292.02 Z M0,1510.47 L0,1502.1 L255.174,1433.34 C253.509,1422.91 256.096,1412.28 262.15,1403.83 L111.828,1265.32 L0,1404.58 L0,1391.7 L105.885,1259.84 L0,1162.28 L0,1151.32 L110.945,1253.54 L224.236,1112.46 L211.63,1056.36 C201.771,1057.41 191.85,1052.37 187.131,1042.99 C186.715,1042.16 186.349,1041.32 186.037,1040.47 L0,1057.08 L0,1048.98 L184.52,1032.5 C184.399,1026.88 186.224,1021.36 189.667,1016.93 L0,814.056 L0,802.224 L195.611,1011.45 C196.381,1010.94 197.184,1010.48 198.026,1010.06 C207.735,1005.17 219.145,1007.35 226.42,1014.65 L461.872,811.325 C461.39,810.576 460.942,809.794 460.532,808.982 C457.425,802.802 457.064,795.966 458.979,789.849 L249.653,674.275 C246.998,677.607 243.601,680.434 239.543,682.477 C224.555,690.012 206.296,683.975 198.759,668.984 C191.217,653.996 197.26,635.734 212.247,628.199 C212.872,627.885 213.504,627.598 214.136,627.329 L139.387,278.609 C130.88,278.405 122.752,273.637 118.665,265.504 C112.757,253.757 117.492,239.451 129.234,233.542 C140.976,227.636 155.286,232.372 161.191,244.113 C164.953,251.588 164.4,260.098 160.474,266.824 L489.53,539.082 L1089.01,286.331 C1084.4,272.298 1090.62,256.628 1104.22,249.791 C1119.18,242.262 1137.42,248.294 1144.95,263.264 C1150.5,274.312 1148.68,287.135 1141.33,296.124 L1389.13,519.651 C1390.44,518.633 1391.86,517.731 1393.39,516.962 C1406,510.619 1421.37,515.697 1427.71,528.314 C1427.93,528.747 1428.13,529.186 1428.33,529.634 L2080.29,360.042 C2078.69,351.296 2082.94,342.186 2091.28,337.988 C2101.42,332.891 2113.78,336.977 2118.88,347.116 C2119.31,347.969 2119.67,348.839 2119.97,349.721 L2383.09,281.276 C2381.53,268.888 2387.78,256.314 2399.57,250.381 C2414.54,242.854 2432.78,248.888 2440.3,263.854 C2447.83,278.826 2441.8,297.061 2426.83,304.592 C2414.65,310.716 2400.31,307.866 2391.34,298.531 L1712.88,753.125 L1713.45,754.216 C1725.58,778.328 1715.86,807.71 1691.75,819.838 C1667.64,831.963 1638.25,822.248 1626.13,798.133 C1623.51,792.932 1621.91,787.486 1621.26,782.017 L1381.98,789.285 C1380.76,793.747 1377.72,797.693 1373.26,799.938 C1364.9,804.14 1354.72,800.774 1350.51,792.417 C1346.31,784.055 1349.68,773.874 1358.03,769.671 C1359.78,768.796 1361.6,768.246 1363.43,768.005 L1396.45,563.931 C1394.39,563.214 1392.43,562.238 1390.61,561.015 L1082.59,877.778 C1082.96,878.381 1083.31,879.008 1083.64,879.649 C1087.93,888.193 1086.53,898.109 1080.86,905.075 L1263.9,1106.85 C1264.18,1106.69 1264.46,1106.54 1264.75,1106.39 C1273.11,1102.19 1283.29,1105.55 1287.49,1113.91 C1291.69,1122.27 1288.33,1132.45 1279.97,1136.66 C1271.61,1140.86 1261.43,1137.5 1257.22,1129.14 C1256.37,1127.43 1255.83,1125.66 1255.58,1123.87 L691.563,1047.72 C688.93,1056.57 682.792,1064.35 673.89,1068.83 C670.3,1070.63 666.542,1071.75 662.77,1072.25 L628.863,1469.16 C634.823,1470.18 640.236,1473.92 643.162,1479.74 C646.393,1486.16 645.788,1493.51 642.211,1499.17 L935.839,1725.45 C937.748,1723.66 939.941,1722.1 942.399,1720.87 C956.133,1713.96 972.868,1719.49 979.772,1733.23 C986.681,1746.96 981.145,1763.7 967.412,1770.6 C953.677,1777.51 936.944,1771.98 930.039,1758.24 C929.554,1757.28 929.136,1756.3 928.769,1755.32 L473.795,1833.14 C473.256,1842.77 467.731,1851.84 458.502,1856.48 C444.77,1863.39 428.034,1857.85 421.129,1844.12 C414.615,1831.17 419.169,1815.55 431.23,1808.02 L305.481,1465.4 C287.427,1470.57 267.68,1462.36 258.934,1444.97 C258.302,1443.72 257.743,1442.44 257.253,1441.16 L0,1510.47 Z M1073.19,911.221 C1062.68,916.511 1050.09,913.168 1043.47,903.864 L692.465,1031.65 C692.953,1034.35 693.112,1037.07 692.96,1039.75 L1256.4,1115.83 C1256.83,1114.63 1257.39,1113.49 1258.07,1112.41 L1074.77,910.351 C1074.26,910.661 1073.73,910.951 1073.19,911.221 L1073.19,911.221 Z" id="Fill-4" fill="#F7F7F9" mask="url(#mask-2)"></path>
                <path d="M2895.98,1436.62 L2701.94,1682.18 C2703.63,1683.59 2705.16,1685.24 2706.49,1687.13 C2707.01,1687.87 2707.48,1688.62 2707.91,1689.39 L3018.46,1565.33 C3017.23,1559.31 3019.24,1552.91 3024.02,1548.69 L2906.91,1436.08 C2906.79,1436.17 2906.66,1436.27 2906.54,1436.35 C2903.3,1438.63 2899.13,1438.61 2895.98,1436.62 Z M2698.58,1679.79 L2893.04,1433.7 C2890.89,1430.34 2891.1,1426.1 2893.32,1423.01 L2802.74,1335.92 C2802.22,1336.35 2801.68,1336.76 2801.12,1337.16 C2795.83,1340.87 2789.6,1342.24 2783.66,1341.48 L2694.95,1678 C2696.19,1678.5 2697.41,1679.1 2698.58,1679.79 Z M2909.29,1423.76 C2910.97,1426.63 2910.98,1430.08 2909.55,1432.9 L3027.49,1546.3 C3031.26,1544.31 3035.52,1543.83 3039.49,1544.72 L3187.49,1217.16 C3186.3,1216.47 3185.18,1215.63 3184.16,1214.66 L2909.29,1423.76 Z M3399.36,1159.5 L3364.42,986.183 C3361.71,986.249 3359.01,985.6 3356.61,984.289 L3208.41,1189.33 C3209.22,1190.1 3209.96,1190.96 3210.62,1191.9 C3211.2,1192.73 3211.69,1193.59 3212.11,1194.47 L3399.36,1159.5 Z M3368.49,985.539 L3403.4,1158.75 L3566.02,1128.38 C3565.47,1125.26 3565.89,1122.04 3567.21,1119.17 L3374.52,982.095 C3374.03,982.55 3373.5,982.981 3372.93,983.378 C3371.53,984.358 3370.03,985.074 3368.49,985.539 Z M3205.14,1186.85 L3353.3,981.855 C3352.6,981.183 3351.96,980.434 3351.38,979.609 C3346.6,972.803 3348.07,963.48 3354.6,958.46 L3263.11,767.288 C3260.98,768.023 3258.76,768.327 3256.56,768.221 L3201.05,1185.11 C3202.47,1185.52 3203.85,1186.1 3205.14,1186.85 Z M3674.57,1176.63 L3482.35,1470.75 C3484.1,1471.89 3485.73,1473.25 3487.19,1474.83 L3763.74,1236.55 C3760.77,1232.12 3760.38,1226.69 3762.26,1222.08 L3674.57,1176.63 Z M3379.51,970.649 C3379.52,973.552 3378.72,976.429 3377.16,978.92 L3569.42,1115.69 C3570.26,1114.7 3571.25,1113.79 3572.36,1113.01 C3577.38,1109.48 3583.78,1109.36 3588.8,1112.16 L3676.34,952.928 L3379.51,970.649 Z M3267.68,1586.37 C3267.09,1586.95 3266.44,1587.5 3265.74,1587.99 C3263.52,1589.55 3261.03,1590.44 3258.5,1590.71 L3242.72,1800.21 C3245.52,1801.03 3248.08,1802.76 3249.88,1805.34 C3250.51,1806.22 3251,1807.16 3251.38,1808.12 L3460.56,1764.34 C3459.68,1759.07 3460.93,1753.59 3464.08,1749.21 L3267.68,1586.37 Z M3443.01,1497.52 C3441.72,1491.16 3442.88,1484.51 3446.25,1478.96 L3278.34,1394.72 C3277.84,1395.34 3277.25,1395.9 3276.57,1396.38 C3275.48,1397.14 3274.27,1397.62 3273.04,1397.83 L3260.79,1560.37 C3264.2,1561.27 3267.32,1563.33 3269.51,1566.44 L3269.65,1566.64 L3443.01,1497.52 Z M2710.61,1707.32 L2973.59,1782.49 C2974.54,1780.38 2976.05,1778.49 2978.08,1777.07 C2980.68,1775.24 2983.71,1774.47 2986.66,1774.68 L3030.58,1578.61 C3026.94,1577.52 3023.64,1575.24 3021.29,1571.9 C3020.69,1571.05 3020.18,1570.16 3019.75,1569.25 L2709.63,1693.14 C2711.31,1697.74 2711.6,1702.67 2710.61,1707.32 Z M3095.06,1637.47 L2994.3,1777.76 C2995.17,1778.49 2995.95,1779.34 2996.63,1780.31 C2998.04,1782.32 2998.82,1784.58 2999.01,1786.86 L3226.22,1809.22 C3226.8,1807.25 3227.83,1805.41 3229.29,1803.86 L3095.06,1637.47 Z M3143.28,1570.31 L3097.55,1634 L3232.54,1801.34 C3234.46,1800.27 3236.55,1799.73 3238.63,1799.68 L3254.39,1590.6 C3250.41,1589.96 3246.69,1587.77 3244.19,1584.22 C3242.62,1581.99 3241.73,1579.49 3241.47,1576.95 L3143.28,1570.31 Z M3233.76,1444.32 L3146.11,1566.38 L3241.58,1572.84 C3242.23,1568.87 3244.41,1565.16 3247.96,1562.67 C3249.51,1561.58 3251.19,1560.81 3252.92,1560.36 L3233.76,1444.32 Z M3267.73,1397.03 L3237.15,1439.6 L3256.8,1558.59 L3268.94,1397.53 C3268.53,1397.39 3268.12,1397.23 3267.73,1397.03 Z M3420.48,1264.28 L3278.81,1384.55 C3280.11,1386.52 3280.5,1388.83 3280.08,1390.99 L3448.7,1475.59 C3450.07,1473.99 3451.66,1472.53 3453.46,1471.26 C3455.96,1469.51 3458.66,1468.26 3461.44,1467.5 L3420.48,1264.28 Z M3570.57,1136.86 L3424.06,1261.24 L3465.48,1466.73 C3470,1466.24 3474.58,1466.95 3478.72,1468.79 L3670.9,1174.73 L3593.77,1134.76 C3592.79,1136.11 3591.58,1137.32 3590.15,1138.33 C3584,1142.64 3575.8,1141.86 3570.57,1136.86 Z M3423.13,1256.64 L3568,1133.65 C3567.74,1133.22 3567.51,1132.78 3567.29,1132.33 L3404.21,1162.78 L3423.13,1256.64 Z M3275.77,1381.74 L3419.55,1259.68 L3400.17,1163.53 L3213.44,1198.4 C3214.82,1205.05 3212.26,1212.18 3206.35,1216.33 C3205.58,1216.87 3204.78,1217.33 3203.97,1217.73 L3270.64,1380.72 C3272.41,1380.53 3274.21,1380.88 3275.77,1381.74 Z M3236.21,1433.87 L3264.59,1394.35 L3264.54,1394.27 C3261.8,1390.37 3262.74,1384.98 3266.64,1382.24 L3266.78,1382.15 L3201.19,1221.81 L3236.21,1433.87 Z M3141.28,1566.05 L3232.82,1438.59 L3196.64,1219.51 C3194.82,1219.55 3193.01,1219.3 3191.27,1218.78 L3043.39,1546.09 C3045.94,1547.35 3048.23,1549.25 3049.98,1551.74 C3051.78,1554.31 3052.8,1557.18 3053.08,1560.09 L3141.28,1566.05 Z M3094.87,1630.68 L3138.46,1569.99 L3053,1564.21 C3052.54,1567.6 3051.09,1570.84 3048.73,1573.48 L3094.87,1630.68 Z M2990.77,1775.63 L3092.38,1634.15 L3045.64,1576.22 C3042.3,1578.54 3038.42,1579.54 3034.64,1579.33 L2990.67,1775.59 L2990.77,1775.63 Z M2268.65,1900 C2268.92,1890.53 2273.5,1881.29 2281.85,1875.43 C2295.89,1865.56 2315.27,1868.95 2325.13,1882.99 C2325.86,1884.02 2326.51,1885.08 2327.09,1886.16 L2661.87,1712.51 C2656.89,1701.46 2660.29,1688.08 2670.57,1680.86 C2676.75,1676.51 2684.18,1675.27 2691.01,1676.79 L2779.63,1340.63 C2774.45,1339.08 2769.75,1335.85 2766.4,1331.09 C2758.49,1319.82 2761.21,1304.28 2772.47,1296.37 C2783.73,1288.46 2799.28,1291.18 2807.19,1302.44 C2813.89,1311.98 2812.96,1324.59 2805.68,1333.03 L2896.4,1420.25 C2899.62,1418.43 2903.55,1418.69 2906.49,1420.73 L3181.54,1211.48 C3176.46,1203.61 3178.46,1193.07 3186.2,1187.63 C3189.47,1185.33 3193.27,1184.31 3196.99,1184.46 L3252.5,767.541 C3248.81,766.467 3245.44,764.179 3243.06,760.786 C3237.49,752.863 3239.4,741.926 3247.33,736.362 C3255.25,730.797 3266.19,732.71 3271.75,740.633 C3277.32,748.556 3275.4,759.49 3267.48,765.055 C3267.26,765.21 3267.04,765.357 3266.82,765.5 L3358.18,956.398 C3364.72,953.718 3372.47,955.804 3376.7,961.828 C3377.74,963.311 3378.48,964.914 3378.95,966.566 L3678.68,948.671 L3782.75,759.36 C3780.95,757.985 3779.32,756.315 3777.95,754.363 C3770.75,744.108 3773.22,729.956 3783.48,722.756 C3788.48,719.243 3794.4,718.032 3800,718.902 L3800,786.382 L3796.7,764.01 C3793.08,764.036 3789.48,763.197 3786.23,761.549 L3683.52,948.381 L3800,941.428 L3800,945.545 L3681.18,952.638 L3592.12,1114.65 C3592.77,1115.3 3593.37,1116 3593.91,1116.78 L3594.14,1117.1 L3800,960.739 L3800,965.902 L3595.97,1120.88 C3597.07,1124.25 3596.95,1127.88 3595.73,1131.13 L3673.17,1171.26 L3800,977.195 L3800,984.703 L3676.83,1173.16 L3764.32,1218.5 C3765.25,1217.29 3766.38,1216.19 3767.69,1215.27 C3774.69,1210.36 3784.34,1212.05 3789.25,1219.04 C3794.16,1226.03 3792.47,1235.68 3785.48,1240.59 C3779.55,1244.75 3771.7,1244.17 3766.46,1239.63 L3489.74,1478.07 C3497.48,1489.68 3494.58,1505.4 3483.1,1513.46 C3471.45,1521.64 3455.37,1518.83 3447.18,1507.18 C3445.92,1505.38 3444.91,1503.47 3444.16,1501.5 L3271.5,1570.34 C3272.95,1574.61 3272.45,1579.29 3270.21,1583.13 L3466.81,1746.13 C3467.46,1745.53 3468.15,1744.97 3468.9,1744.45 C3478.05,1738.02 3490.68,1740.23 3497.1,1749.38 C3503.53,1758.53 3501.32,1771.16 3492.17,1777.59 C3483.02,1784.01 3470.39,1781.81 3463.96,1772.66 C3463,1771.28 3462.23,1769.82 3461.64,1768.32 L3252.28,1812.14 C3252.56,1816.62 3250.58,1821.13 3246.64,1823.89 C3243.42,1826.15 3239.56,1826.79 3236.01,1825.97 L3207.38,1900 L3202.97,1900 L3232.19,1824.45 C3231,1823.74 3229.92,1822.85 3228.98,1821.77 L3093.49,1900 L3085.27,1900 L3226.77,1818.3 C3226.07,1816.69 3225.71,1814.99 3225.67,1813.3 L2998.71,1790.96 C2997.99,1794.05 2996.18,1796.9 2993.39,1798.86 C2990.06,1801.2 2986.03,1801.8 2982.37,1800.85 L2928.25,1900 L2923.56,1900 L2978.59,1799.2 C2977.65,1798.61 2976.77,1797.89 2975.99,1797.04 L2839.77,1900 L2832.96,1900 L2973.68,1793.63 C2972.6,1791.35 2972.23,1788.87 2972.5,1786.46 L2709.44,1711.26 C2707.66,1715.86 2704.55,1720.01 2700.21,1723.05 C2699.47,1723.57 2698.72,1724.04 2697.95,1724.47 L2784.48,1900 L2779.9,1900 L2694.21,1726.18 C2687.16,1728.76 2679.38,1728.08 2672.93,1724.53 L2556.34,1900 L2551.4,1900 L2669.49,1722.25 C2667.55,1720.73 2665.79,1718.9 2664.29,1716.77 C2664.14,1716.56 2664,1716.34 2663.85,1716.12 L2328.8,1889.91 C2330.03,1893.19 2330.68,1896.6 2330.77,1900 L2268.65,1900 L2268.65,1900 Z" id="Fill-5" fill="#F7F7F9" mask="url(#mask-2)"></path>
                <path d="M904.021,463.382 L1098.06,217.827 C1096.37,216.412 1094.83,214.756 1093.51,212.866 C1092.99,212.134 1092.52,211.383 1092.09,210.616 L781.545,334.67 C782.77,340.689 780.764,347.094 775.976,351.315 L893.09,463.924 C893.212,463.829 893.336,463.736 893.463,463.647 C896.704,461.372 900.869,461.396 904.021,463.382 Z M1101.42,220.213 L906.962,466.307 C909.112,469.659 908.9,473.899 906.683,476.992 L997.262,564.086 C997.782,563.656 998.323,563.241 998.883,562.846 C1004.17,559.133 1010.4,557.762 1016.34,558.517 L1105.05,221.998 C1103.81,221.502 1102.59,220.905 1101.42,220.213 Z M890.71,476.238 C889.034,473.37 889.017,469.922 890.454,467.105 L772.515,353.704 C768.736,355.694 764.475,356.175 760.511,355.283 L612.511,682.844 C613.702,683.533 614.824,684.368 615.844,685.346 L890.71,476.238 Z M400.644,740.497 L435.58,913.819 C438.291,913.752 440.994,914.403 443.392,915.712 L591.586,710.673 C590.785,709.903 590.045,709.042 589.381,708.097 C588.803,707.274 588.305,706.415 587.886,705.535 L400.644,740.497 Z M431.513,914.463 L396.601,741.252 L233.978,771.616 C234.534,774.742 234.11,777.966 232.789,780.832 L425.478,917.907 C425.973,917.452 426.505,917.021 427.071,916.624 C428.466,915.645 429.966,914.928 431.513,914.463 Z M594.863,713.15 L446.699,918.147 C447.398,918.818 448.042,919.568 448.62,920.392 C453.4,927.199 451.927,936.523 445.395,941.541 L536.889,1132.71 C539.02,1131.98 541.242,1131.68 543.436,1131.78 L598.948,714.888 C597.526,714.486 596.153,713.905 594.863,713.15 Z M125.433,723.373 L317.653,429.254 C315.902,428.115 314.271,426.75 312.806,425.167 L36.26,663.457 C39.23,667.879 39.615,673.307 37.737,677.923 L125.433,723.373 Z M420.491,929.353 C420.481,926.449 421.284,923.573 422.84,921.082 L230.576,784.31 C229.735,785.304 228.755,786.21 227.638,786.994 C222.614,790.522 216.221,790.644 211.198,787.841 L123.663,947.074 L420.491,929.353 Z M532.318,313.629 C532.91,313.047 533.558,312.509 534.259,312.015 C536.483,310.455 538.973,309.559 541.496,309.293 L557.283,99.793 C554.478,98.976 551.923,97.238 550.115,94.664 C549.493,93.78 548.996,92.846 548.617,91.883 L339.444,135.664 C340.316,140.94 339.065,146.408 335.918,150.793 L532.318,313.629 Z M356.987,402.485 C358.279,408.842 357.12,415.495 353.752,421.04 L521.66,505.28 C522.157,504.662 522.749,504.103 523.43,503.625 C524.521,502.858 525.728,502.38 526.961,502.174 L539.21,339.631 C535.801,338.735 532.676,336.676 530.49,333.564 L530.35,333.36 L356.987,402.485 Z M1089.39,192.679 L826.413,117.507 C825.464,119.619 823.955,121.51 821.922,122.936 C819.319,124.766 816.289,125.532 813.343,125.324 L769.422,321.394 C773.055,322.486 776.362,324.759 778.711,328.104 C779.309,328.955 779.82,329.842 780.247,330.752 L1090.37,206.867 C1088.69,202.259 1088.4,197.337 1089.39,192.679 Z M704.944,262.535 L805.698,122.238 C804.834,121.51 804.049,120.661 803.37,119.695 C801.96,117.686 801.182,115.422 800.995,113.142 L573.784,90.785 C573.205,92.749 572.169,94.593 570.711,96.14 L704.944,262.535 Z M656.717,329.69 L702.453,266.003 L567.458,98.666 C565.54,99.726 563.448,100.269 561.365,100.322 L545.609,309.402 C549.586,310.043 553.311,312.227 555.809,315.782 C557.376,318.016 558.27,320.518 558.535,323.051 L656.717,329.69 Z M566.238,455.679 L653.893,333.622 L558.417,327.167 C557.77,331.13 555.588,334.841 552.042,337.332 C550.49,338.423 548.809,339.186 547.076,339.64 L566.238,455.679 Z M532.274,502.973 L562.846,460.401 L543.197,341.408 L531.059,502.475 C531.475,502.609 531.882,502.774 532.274,502.973 Z M379.523,635.716 L521.187,515.451 C519.887,513.484 519.496,511.169 519.921,509.015 L351.305,424.417 C349.933,426.017 348.343,427.471 346.538,428.738 C344.042,430.491 341.343,431.739 338.562,432.505 L379.523,635.716 Z M229.427,763.143 L375.941,638.758 L334.522,433.274 C330.004,433.764 325.425,433.049 321.277,431.216 L129.099,725.272 L206.227,765.242 C207.206,763.896 208.418,762.686 209.856,761.677 C216.001,757.359 224.197,758.141 229.427,763.143 Z M376.869,643.361 L231.997,766.352 C232.258,766.784 232.495,767.224 232.709,767.672 L395.787,737.223 L376.869,643.361 Z M524.228,518.26 L380.452,640.32 L399.832,736.467 L586.562,701.602 C585.179,694.956 587.744,687.824 593.651,683.675 C594.419,683.136 595.218,682.667 596.034,682.268 L529.356,519.278 C527.588,519.475 525.791,519.119 524.228,518.26 Z M563.793,466.133 L535.411,505.654 L535.463,505.728 C538.204,509.631 537.263,515.018 533.358,517.76 L533.219,517.856 L598.81,678.188 L563.793,466.133 Z M658.719,333.948 L567.184,461.41 L603.362,680.494 C605.179,680.456 606.989,680.702 608.726,681.216 L756.613,353.908 C754.056,352.651 751.77,350.752 750.018,348.257 C748.219,345.696 747.201,342.821 746.916,339.913 L658.719,333.948 Z M705.131,269.323 L661.543,330.017 L746.997,335.795 C747.463,332.406 748.915,329.158 751.271,326.518 L705.131,269.323 Z M809.229,124.367 L707.622,265.853 L754.358,323.786 C757.705,321.459 761.582,320.459 765.363,320.677 L809.328,124.408 L809.229,124.367 Z M1531.35,0 C1531.08,9.476 1526.5,18.709 1518.15,24.576 C1504.11,34.438 1484.73,31.051 1474.87,17.009 C1474.14,15.978 1473.49,14.92 1472.91,13.837 L1138.13,187.49 C1143.11,198.544 1139.71,211.922 1129.43,219.148 C1123.25,223.487 1115.82,224.736 1108.99,223.213 L1020.37,559.371 C1025.54,560.921 1030.25,564.156 1033.6,568.917 C1041.51,580.178 1038.79,595.72 1027.53,603.632 C1016.27,611.54 1000.72,608.822 992.813,597.56 C986.115,588.023 987.039,575.416 994.321,566.974 L903.604,479.75 C900.377,481.568 896.448,481.31 893.51,479.274 L618.461,688.52 C623.543,696.389 621.539,706.937 613.805,712.369 C610.525,714.673 606.73,715.693 603.012,715.539 L547.498,1132.46 C551.192,1133.53 554.559,1135.82 556.942,1139.22 C562.508,1147.14 560.596,1158.08 552.673,1163.64 C544.749,1169.2 533.814,1167.29 528.249,1159.37 C522.684,1151.45 524.596,1140.51 532.52,1134.95 C532.739,1134.79 532.96,1134.64 533.184,1134.5 L441.819,943.603 C435.282,946.283 427.534,944.198 423.302,938.174 C422.26,936.691 421.517,935.088 421.055,933.437 L121.322,951.332 L17.254,1140.64 C19.054,1142.02 20.679,1143.69 22.051,1145.64 C29.254,1155.89 26.779,1170.05 16.524,1177.25 C11.524,1180.76 5.597,1181.97 0,1181.1 L0,1113.62 L3.298,1135.99 C6.922,1135.97 10.521,1136.8 13.77,1138.45 L116.476,951.62 L0,958.574 L0,954.456 L118.816,947.364 L207.881,785.348 C207.231,784.705 206.63,783.999 206.088,783.226 L205.864,782.901 L0,939.263 L0,934.1 L204.034,779.126 C202.932,775.749 203.048,772.127 204.271,768.873 L126.831,728.741 L0,922.808 L0,915.298 L123.166,726.842 L35.683,681.502 C34.75,682.715 33.622,683.808 32.306,684.733 C25.313,689.643 15.665,687.957 10.754,680.965 C5.844,673.974 7.531,664.326 14.523,659.416 C20.452,655.25 28.296,655.834 33.536,660.373 L310.262,421.933 C302.524,410.327 305.423,394.602 316.901,386.542 C328.553,378.357 344.634,381.169 352.818,392.821 C354.084,394.624 355.087,396.534 355.835,398.503 L528.502,329.658 C527.048,325.39 527.551,320.708 529.789,316.87 L333.191,153.87 C332.542,154.468 331.846,155.031 331.104,155.551 C321.953,161.979 309.325,159.77 302.897,150.62 C296.469,141.469 298.678,128.84 307.828,122.413 C316.98,115.987 329.609,118.195 336.035,127.344 C337.002,128.722 337.774,130.179 338.355,131.68 L547.72,87.859 C547.439,83.384 549.423,78.875 553.358,76.11 C556.576,73.85 560.445,73.215 563.994,74.029 L592.618,0 L597.028,0 L567.813,75.556 C568.996,76.257 570.083,77.15 571.025,78.227 L706.509,0 L714.725,0 L573.229,81.699 C573.93,83.308 574.292,85.009 574.328,86.705 L801.293,109.038 C802.006,105.951 803.817,103.105 806.614,101.141 C809.945,98.801 813.972,98.202 817.626,99.152 L871.751,0 L876.436,0 L821.414,100.8 C822.353,101.395 823.228,102.117 824.011,102.958 L960.227,0 L967.045,0 L826.319,106.367 C827.398,108.648 827.773,111.135 827.499,113.541 L1090.56,188.737 C1092.34,184.137 1095.45,179.997 1099.79,176.95 C1100.53,176.432 1101.28,175.958 1102.05,175.527 L1015.52,0 L1020.1,0 L1105.79,173.818 C1112.84,171.246 1120.62,171.921 1127.07,175.476 L1243.66,0 L1248.6,0 L1130.51,177.746 C1132.45,179.271 1134.21,181.103 1135.71,183.23 C1135.86,183.445 1136,183.664 1136.15,183.883 L1471.2,10.089 C1469.97,6.815 1469.32,3.406 1469.23,0 L1531.35,0 L1531.35,0 Z" id="Fill-6" fill="#F7F7F9" mask="url(#mask-2)"></path>
            </g>
        </g>
    </g>
</svg>